<svg xmlns="http://www.w3.org/2000/svg" width="1400" height="760" viewBox="0 0 1400 760">
  <defs>
    <linearGradient id="bg" x1="0" y1="0" x2="1" y2="1">
      <stop offset="0%" stop-color="#0f0f0f"/>
      <stop offset="100%" stop-color="#181510"/>
    </linearGradient>
    <style>
      .title { font: 700 58px Arial, sans-serif; fill: #f7f3eb; }
      .sub { font: 500 24px Arial, sans-serif; fill: #c6bcaa; }
      .card { fill: #171717; stroke: rgba(212,175,55,0.28); stroke-width: 2; }
      .pill { fill: rgba(212,175,55,0.18); stroke: rgba(212,175,55,0.35); stroke-width: 1.5; }
      .text { font: 700 28px Arial, sans-serif; fill: #f7f3eb; }
      .small { font: 500 18px Arial, sans-serif; fill: #c6bcaa; }
    </style>
  </defs>
  <rect width="1400" height="760" fill="url(#bg)"/>
  <text x="70" y="110" class="title">Golden Ticket</text>
  <text x="70" y="155" class="sub">Catalogo publico de eventos con busqueda, filtros y acceso al detalle.</text>
  <rect x="70" y="205" width="500" height="56" rx="16" class="card"/>
  <rect x="590" y="205" width="180" height="56" rx="16" class="card"/>
  <rect x="70" y="310" width="390" height="340" rx="24" class="card"/>
  <rect x="505" y="310" width="390" height="340" rx="24" class="card"/>
  <rect x="940" y="310" width="390" height="340" rx="24" class="card"/>
  <rect x="98" y="334" width="126" height="34" rx="17" class="pill"/>
  <rect x="533" y="334" width="126" height="34" rx="17" class="pill"/>
  <rect x="968" y="334" width="126" height="34" rx="17" class="pill"/>
  <text x="98" y="420" class="text">Conferencia Tech Summit</text>
  <text x="98" y="460" class="small">18/07/2026 - 09:00</text>
  <text x="98" y="494" class="small">Centro de Convenciones Cordoba</text>
  <text x="533" y="420" class="text">Festival Indie Nights</text>
  <text x="533" y="460" class="small">02/08/2026 - 17:30</text>
  <text x="533" y="494" class="small">Parque Sarmiento</text>
  <text x="968" y="420" class="text">Workshop de Fotografia</text>
  <text x="968" y="460" class="small">05/07/2026 - 14:00</text>
  <text x="968" y="494" class="small">Espacio Creativo Nueva Cordoba</text>
</svg>

